<?xml version="1.0" encoding="UTF-8" standalone="no"?>
<svg
   xmlns:dc="http://purl.org/dc/elements/1.1/"
   xmlns:cc="http://creativecommons.org/ns#"
   xmlns:rdf="http://www.w3.org/1999/02/22-rdf-syntax-ns#"
   xmlns:svg="http://www.w3.org/2000/svg"
   xmlns="http://www.w3.org/2000/svg"
   xmlns:sodipodi="http://sodipodi.sourceforge.net/DTD/sodipodi-0.dtd"
   xmlns:inkscape="http://www.inkscape.org/namespaces/inkscape"
   aria-label="AppStore"
   role="img"
   viewBox="0 0 500 500"
   version="1.1"
   id="svg4"
   sodipodi:docname="icon.svg"
   inkscape:version="1.0 (4035a4fb49, 2020-05-01)">
  <metadata
     id="metadata10">
    <rdf:RDF>
      <cc:Work
         rdf:about="">
        <dc:format>image/svg+xml</dc:format>
        <dc:type
           rdf:resource="http://purl.org/dc/dcmitype/StillImage" />
      </cc:Work>
    </rdf:RDF>
  </metadata>
  <defs
     id="defs8">
    <linearGradient
       y2="800"
       x2="400"
       y1="0"
       x1="400"
       gradientUnits="userSpaceOnUse"
       id="SVGID_1_"
       gradientTransform="scale(0.62492188)">
      <stop
         id="stop6"
         style="stop-color:#0ED4FC"
         offset="0" />
      <stop
         id="stop8"
         style="stop-color:#0C57EF"
         offset="1" />
    </linearGradient>
  </defs>
  <sodipodi:namedview
     inkscape:document-rotation="0"
     pagecolor="#ffffff"
     bordercolor="#666666"
     borderopacity="1"
     objecttolerance="10"
     gridtolerance="10"
     guidetolerance="10"
     inkscape:pageopacity="0"
     inkscape:pageshadow="2"
     inkscape:window-width="1884"
     inkscape:window-height="1052"
     id="namedview6"
     showgrid="false"
     inkscape:zoom="1.3622282"
     inkscape:cx="250"
     inkscape:cy="250"
     inkscape:window-x="36"
     inkscape:window-y="0"
     inkscape:window-maximized="1"
     inkscape:current-layer="svg4" />
  <rect
     width="500"
     height="500"
     rx="15.000001%"
     fill="#ffffff"
     id="rect2"
     x="0"
     y="0"
     style="display:inline;fill:url(#SVGID_1_);stroke-width:0.624922" />
  <path
     id="path13"
     d="m 247.84402,114.86064 10.12373,-17.49781 c 6.24922,-10.93613 20.18498,-14.62317 31.12111,-8.37395 10.93614,6.24922 14.62318,20.18497 8.37396,31.12111 l -97.55031,168.85389 h 70.55368 c 22.87214,0 35.68304,26.87164 25.74678,45.49431 H 89.36383 c -12.62342,0 -22.74715,-10.12373 -22.74715,-22.74715 0,-12.62343 10.12373,-22.74716 22.74715,-22.74716 h 57.99275 L 221.5973,160.29246 198.4127,120.04749 c -6.24922,-10.93613 -2.56218,-24.7469 8.37395,-31.12111 10.93613,-6.24921 24.74691,-2.56218 31.12111,8.37396 z m -87.73903,243.03212 -21.87227,37.93276 c -6.24922,10.93613 -20.18497,14.62317 -31.12111,8.37396 -10.93613,-6.24922 -14.62317,-20.18498 -8.37395,-31.12111 l 16.24797,-28.12149 c 18.3727,-5.68679 33.30834,-1.31234 45.11936,12.93588 z m 188.35145,-68.8039 h 59.18011 c 12.62342,0 22.74715,10.12374 22.74715,22.74716 0,12.62342 -10.12373,22.74716 -22.74715,22.74716 h -32.8709 l 22.18473,38.49519 c 6.24922,10.93613 2.56218,24.7469 -8.37395,31.12111 -10.93614,6.24921 -24.74691,2.56217 -31.12111,-8.37396 -37.37033,-64.8044 -65.42932,-113.29834 -84.052,-145.6068 -19.06011,-32.87089 -5.43682,-65.86676 7.99901,-77.05287 14.93563,25.6218 37.24534,64.30447 67.05411,115.92301 z"
     class="st1"
     style="fill:#ffffff;stroke-width:0.624922" />
</svg>
